<svg width="76" height="67" viewBox="0 0 76 67" fill="none" xmlns="http://www.w3.org/2000/svg">
<path d="M65.3265 45.4998L45.1178 61.5039C41.4457 64.412 36.0519 63.4142 33.6632 59.3849C31.5978 55.901 32.5699 51.4137 35.892 49.0969L41.4388 45.2286C47.559 40.9604 48.3415 32.201 43.0748 26.9156L34.2814 18.0908C31.7613 15.5617 31.2725 11.6476 33.0932 8.5765C35.6811 4.21131 41.6753 3.4258 45.3005 6.97677L66.2735 27.5199C71.4354 32.576 70.991 41.0139 65.3265 45.4998Z" fill="#FF6C01"/>
<path d="M35.3265 45.4998L15.1178 61.5039C11.4457 64.412 6.05194 63.4142 3.6632 59.3849C1.59778 55.901 2.5699 51.4137 5.89198 49.0969L11.4388 45.2286C17.559 40.9604 18.3415 32.201 13.0748 26.9156L4.2814 18.0908C1.76133 15.5617 1.27253 11.6476 3.09324 8.5765C5.68112 4.21131 11.6753 3.4258 15.3005 6.97677L36.2735 27.5199C41.4354 32.576 40.991 41.0139 35.3265 45.4998Z" fill="#FF6C01"/>
</svg>
